<?xml version="1.0" standalone="no"?>
<!DOCTYPE svg PUBLIC "-//W3C//DTD SVG 20010904//EN"
 "http://www.w3.org/TR/2001/REC-SVG-20010904/DTD/svg10.dtd">
<svg version="1.0" xmlns="http://www.w3.org/2000/svg"
 width="1040.000000pt" height="1040.000000pt" viewBox="0 0 1040.000000 1040.000000"
 preserveAspectRatio="xMidYMid meet">
<metadata>
Created by potrace 1.11, written by Peter Selinger 2001-2013
</metadata>
<g transform="translate(0.000000,1040.000000) scale(0.100000,-0.100000)"
fill="#000000" stroke="none">
<path d="M4858 10389 c-1020 -65 -2024 -446 -2833 -1073 -1460 -1132 -2209
-2925 -1985 -4752 243 -1985 1616 -3663 3510 -4294 1650 -550 3460 -244 4825
814 1460 1132 2209 2925 1985 4752 -243 1985 -1616 3663 -3510 4294 -641 214
-1320 302 -1992 259z m-553 -2783 c55 -26 99 -65 123 -111 8 -16 64 -275 123
-574 59 -299 110 -545 113 -548 2 -3 60 42 128 99 543 458 1051 761 1393 833
274 57 498 -44 585 -265 25 -64 92 -476 94 -575 1 -60 -3 -78 -29 -123 -100
-182 -361 -171 -444 18 -20 45 -69 307 -70 368 0 48 -11 92 -23 92 -33 0 -210
-70 -313 -124 -325 -169 -774 -501 -1148 -847 l-59 -54 47 -240 c102 -528 176
-1024 191 -1277 6 -103 9 -118 24 -118 10 0 118 29 241 64 616 177 1220 391
2399 851 644 251 1036 399 1101 415 103 26 217 -28 271 -125 34 -62 38 -157 9
-220 -39 -85 -76 -107 -336 -204 -132 -49 -386 -146 -565 -216 -1188 -464
-1673 -644 -2210 -820 -244 -79 -675 -205 -840 -245 -52 -13 -96 -23 -97 -24
-1 -1 -11 -47 -22 -104 -26 -127 -60 -221 -119 -337 -38 -73 -65 -108 -147
-190 -86 -87 -114 -108 -195 -148 -55 -27 -137 -58 -195 -73 -475 -119 -1398
90 -2734 618 -223 89 -259 106 -296 143 -118 118 -90 309 57 390 44 25 64 30
118 29 58 -1 91 -11 305 -96 1035 -413 1886 -640 2305 -615 115 7 182 26 247
71 50 34 115 126 129 180 l7 29 -49 -7 c-226 -31 -513 -32 -674 -1 -330 62
-544 226 -622 477 -32 104 -30 265 5 400 98 373 407 834 938 1398 l161 170
-136 679 c-76 376 -136 703 -136 732 1 180 185 300 345 225z"/>
<path d="M4225 5227 c-246 -284 -420 -530 -525 -740 -66 -134 -106 -268 -97
-326 23 -141 353 -196 802 -133 l120 17 -3 95 c-3 126 -27 356 -57 565 -35
238 -106 638 -115 648 -4 5 -60 -52 -125 -126z"/>
</g>
</svg>
