<?xml version="1.0" standalone="no"?>
<!DOCTYPE svg PUBLIC "-//W3C//DTD SVG 20010904//EN"
 "http://www.w3.org/TR/2001/REC-SVG-20010904/DTD/svg10.dtd">
<svg version="1.0" xmlns="http://www.w3.org/2000/svg"
 width="1040.000000pt" height="1040.000000pt" viewBox="0 0 1040.000000 1040.000000"
 preserveAspectRatio="xMidYMid meet">
<metadata>
Created by potrace 1.11, written by Peter Selinger 2001-2013
</metadata>
<g transform="translate(0.000000,1040.000000) scale(0.100000,-0.100000)"
fill="#000000" stroke="none">
<path d="M4010 7901 c-113 -37 -183 -129 -182 -241 0 -56 74 -444 226 -1189
l84 -414 -166 -176 c-639 -673 -992 -1207 -1088 -1642 -22 -102 -22 -275 0
-359 34 -126 120 -257 223 -341 189 -152 432 -219 798 -219 158 0 407 18 488
36 34 7 34 -2 -1 -88 -116 -287 -348 -351 -932 -257 -523 83 -1349 342 -2220
693 -92 38 -188 70 -216 73 -134 15 -257 -85 -271 -220 -9 -89 34 -182 105
-230 73 -48 809 -329 1232 -470 877 -293 1571 -426 1970 -376 414 51 693 278
819 667 16 48 36 125 45 172 32 158 5 135 221 190 758 194 1526 461 3125 1085
278 109 654 253 835 321 325 122 331 124 375 172 73 78 90 174 46 267 -25 55
-81 110 -132 131 -19 8 -60 14 -93 14 -79 0 -208 -47 -1331 -485 -1355 -529
-2123 -798 -2811 -984 -137 -38 -185 -47 -191 -38 -4 7 -8 37 -8 68 -1 252
-133 1132 -263 1752 l-15 68 128 115 c530 477 1090 868 1439 1005 99 39 215
68 226 57 9 -9 25 -110 25 -158 0 -88 56 -357 85 -405 82 -141 279 -162 391
-43 81 85 84 125 39 423 -47 315 -57 360 -95 435 -122 242 -405 313 -761 191
-377 -128 -937 -488 -1458 -936 -68 -59 -127 -103 -131 -98 -8 8 -125 584
-214 1050 -25 132 -52 244 -62 260 -30 47 -67 84 -108 105 -43 22 -136 32
-176 19z m284 -2646 c99 -536 152 -927 172 -1266 l6 -116 -108 -17 c-205 -30
-333 -38 -517 -33 -138 3 -199 9 -253 24 -91 26 -170 69 -203 112 -99 130 81
537 448 1011 131 168 408 486 417 478 1 -2 19 -89 38 -193z"/>
</g>
</svg>
