<?xml version="1.0" encoding="UTF-8"?>
<svg width="233px" height="268px" viewBox="0 0 233 268" version="1.1" xmlns="http://www.w3.org/2000/svg" xmlns:xlink="http://www.w3.org/1999/xlink">
    <!-- Generator: Sketch 60.1 (88133) - https://sketch.com -->
    <title>joe_bot</title>
    <desc>Created with Sketch.</desc>
    <defs>
        <radialGradient cx="337.595855%" cy="51.2430766%" fx="337.595855%" fy="51.2430766%" r="288.592375%" id="radialGradient-1">
            <stop stop-color="#C0BFF6" offset="0%"></stop>
            <stop stop-color="#393091" offset="100%"></stop>
        </radialGradient>
        <radialGradient cx="81.4615909%" cy="33.3146133%" fx="81.4615909%" fy="33.3146133%" r="86.1722727%" gradientTransform="translate(0.814616,0.333146),scale(1.000000,0.855033),translate(-0.814616,-0.333146)" id="radialGradient-2">
            <stop stop-color="#C0BFF6" offset="0%"></stop>
            <stop stop-color="#393091" offset="100%"></stop>
        </radialGradient>
        <linearGradient x1="51.8747727%" y1="100.31131%" x2="51.8747727%" y2="0.223085892%" id="linearGradient-3">
            <stop stop-color="#42E8E0" offset="0%"></stop>
            <stop stop-color="#42E6DF" offset="0%"></stop>
            <stop stop-color="#40B6CB" offset="14%"></stop>
            <stop stop-color="#3E8DB9" offset="27%"></stop>
            <stop stop-color="#3C6BAA" offset="41%"></stop>
            <stop stop-color="#3B519F" offset="55%"></stop>
            <stop stop-color="#3A3F97" offset="69%"></stop>
            <stop stop-color="#393493" offset="84%"></stop>
            <stop stop-color="#393091" offset="100%"></stop>
        </linearGradient>
        <radialGradient cx="7.67178119%" cy="-90.7609351%" fx="7.67178119%" fy="-90.7609351%" r="177.685123%" gradientTransform="translate(0.076718,-0.907609),scale(1.000000,0.818288),translate(-0.076718,0.907609)" id="radialGradient-4">
            <stop stop-color="#C0BFF6" offset="0%"></stop>
            <stop stop-color="#393091" offset="100%"></stop>
        </radialGradient>
        <radialGradient cx="81.7542614%" cy="54.7246254%" fx="81.7542614%" fy="54.7246254%" r="84.51771%" id="radialGradient-5">
            <stop stop-color="#C0BFF6" offset="0%"></stop>
            <stop stop-color="#393091" offset="100%"></stop>
        </radialGradient>
        <linearGradient x1="25.1312287%" y1="93.3467221%" x2="74.9303741%" y2="6.61016092%" id="linearGradient-6">
            <stop stop-color="#42E8E0" offset="0%"></stop>
            <stop stop-color="#42E6DF" offset="0%"></stop>
            <stop stop-color="#40B6CB" offset="14%"></stop>
            <stop stop-color="#3E8DB9" offset="27%"></stop>
            <stop stop-color="#3C6BAA" offset="41%"></stop>
            <stop stop-color="#3B519F" offset="55%"></stop>
            <stop stop-color="#3A3F97" offset="69%"></stop>
            <stop stop-color="#393493" offset="84%"></stop>
            <stop stop-color="#393091" offset="100%"></stop>
        </linearGradient>
        <radialGradient cx="47.4247492%" cy="-3.31221843%" fx="47.4247492%" fy="-3.31221843%" r="120.535117%" gradientTransform="translate(0.474247,-0.033122),scale(1.000000,0.816773),translate(-0.474247,0.033122)" id="radialGradient-7">
            <stop stop-color="#C0BFF6" offset="0%"></stop>
            <stop stop-color="#393091" offset="100%"></stop>
        </radialGradient>
        <radialGradient cx="92.9073909%" cy="40.0297231%" fx="92.9073909%" fy="40.0297231%" r="104.31085%" id="radialGradient-8">
            <stop stop-color="#C0BFF6" offset="0%"></stop>
            <stop stop-color="#393091" offset="100%"></stop>
        </radialGradient>
        <linearGradient x1="-0.00531704089%" y1="51.1864222%" x2="99.9694929%" y2="48.8679407%" id="linearGradient-9">
            <stop stop-color="#42E8E0" offset="0%"></stop>
            <stop stop-color="#42E6DF" offset="0%"></stop>
            <stop stop-color="#40B6CB" offset="14%"></stop>
            <stop stop-color="#3E8DB9" offset="27%"></stop>
            <stop stop-color="#3C6BAA" offset="41%"></stop>
            <stop stop-color="#3B519F" offset="55%"></stop>
            <stop stop-color="#3A3F97" offset="69%"></stop>
            <stop stop-color="#393493" offset="84%"></stop>
            <stop stop-color="#393091" offset="100%"></stop>
        </linearGradient>
        <radialGradient cx="122.997203%" cy="12.2482189%" fx="122.997203%" fy="12.2482189%" r="127.195241%" gradientTransform="translate(1.229972,0.122482),scale(1.000000,0.611522),rotate(6.892423),translate(-1.229972,-0.122482)" id="radialGradient-10">
            <stop stop-color="#C0BFF6" offset="0%"></stop>
            <stop stop-color="#393091" offset="100%"></stop>
        </radialGradient>
        <linearGradient x1="27.9595582%" y1="47.2804493%" x2="64.848687%" y2="54.5722957%" id="linearGradient-11">
            <stop stop-color="#42E8E0" offset="0%"></stop>
            <stop stop-color="#42E6DF" offset="0%"></stop>
            <stop stop-color="#40B6CB" offset="14%"></stop>
            <stop stop-color="#3E8DB9" offset="27%"></stop>
            <stop stop-color="#3C6BAA" offset="41%"></stop>
            <stop stop-color="#3B519F" offset="55%"></stop>
            <stop stop-color="#3A3F97" offset="69%"></stop>
            <stop stop-color="#393493" offset="84%"></stop>
            <stop stop-color="#393091" offset="100%"></stop>
        </linearGradient>
        <radialGradient cx="169.511624%" cy="20.327745%" fx="169.511624%" fy="20.327745%" r="110.036828%" gradientTransform="translate(1.695116,0.203277),scale(0.760982,1.000000),rotate(61.189206),translate(-1.695116,-0.203277)" id="radialGradient-12">
            <stop stop-color="#C0BFF6" offset="0%"></stop>
            <stop stop-color="#393091" offset="100%"></stop>
        </radialGradient>
        <linearGradient x1="105.627498%" y1="78.8255087%" x2="28.8185803%" y2="76.6777259%" id="linearGradient-13">
            <stop stop-color="#42E8E0" offset="0%"></stop>
            <stop stop-color="#42E6DF" offset="0%"></stop>
            <stop stop-color="#40B6CB" offset="14%"></stop>
            <stop stop-color="#3E8DB9" offset="27%"></stop>
            <stop stop-color="#3C6BAA" offset="41%"></stop>
            <stop stop-color="#3B519F" offset="55%"></stop>
            <stop stop-color="#3A3F97" offset="69%"></stop>
            <stop stop-color="#393493" offset="84%"></stop>
            <stop stop-color="#393091" offset="100%"></stop>
        </linearGradient>
        <linearGradient x1="49.9981631%" y1="100%" x2="50%" y2="14.018285%" id="linearGradient-14">
            <stop stop-color="#42E8E0" offset="0%"></stop>
            <stop stop-color="#39BDC0" offset="12%"></stop>
            <stop stop-color="#2F899A" offset="28%"></stop>
            <stop stop-color="#16659B" offset="45%"></stop>
            <stop stop-color="#174F75" offset="60%"></stop>
            <stop stop-color="#154260" offset="75%"></stop>
            <stop stop-color="#12374F" offset="88%"></stop>
            <stop stop-color="#0E2838" offset="100%"></stop>
        </linearGradient>
        <linearGradient x1="49.9364676%" y1="99.999991%" x2="49.9364676%" y2="8.94285832e-06%" id="linearGradient-15">
            <stop stop-color="#161242" offset="0%"></stop>
            <stop stop-color="#171746" offset="12%"></stop>
            <stop stop-color="#1A2550" offset="25%"></stop>
            <stop stop-color="#1F3D62" offset="40%"></stop>
            <stop stop-color="#265F7B" offset="55%"></stop>
            <stop stop-color="#2F899A" offset="72%"></stop>
            <stop stop-color="#39BDC0" offset="88%"></stop>
            <stop stop-color="#42E8E0" offset="100%"></stop>
        </linearGradient>
        <linearGradient x1="49.9997161%" y1="99.9999808%" x2="49.9997161%" y2="1.92433853e-05%" id="linearGradient-16">
            <stop stop-color="#161242" offset="0%"></stop>
            <stop stop-color="#171746" offset="12%"></stop>
            <stop stop-color="#1A2550" offset="25%"></stop>
            <stop stop-color="#1F3D62" offset="40%"></stop>
            <stop stop-color="#265F7B" offset="55%"></stop>
            <stop stop-color="#2F899A" offset="72%"></stop>
            <stop stop-color="#39BDC0" offset="88%"></stop>
            <stop stop-color="#42E8E0" offset="100%"></stop>
        </linearGradient>
    </defs>
    <g id="Portfolio" stroke="none" stroke-width="1" fill="none" fill-rule="evenodd">
        <g id="Banner-Copy-2" transform="translate(-569.000000, -690.000000)" fill-rule="nonzero">
            <g id="joe_bot" transform="translate(546.000000, 690.000000)">
                <rect id="Rectangle" fill="#42E8E0" transform="translate(198.484393, 210.443073) rotate(-22.030000) translate(-198.484393, -210.443073) " x="195.739393" y="187.023073" width="5.49" height="46.84"></rect>
                <circle id="Oval" fill="url(#radialGradient-1)" transform="translate(95.600788, 167.459076) rotate(-33.980000) translate(-95.600788, -167.459076) " cx="95.600788" cy="167.459076" r="17.05"></circle>
                <path d="M183.64,192.670024 C183.64,225.760024 163.93,252.590024 139.64,252.590024 C115.35,252.590024 95.64,225.760024 95.64,192.670024 C95.64,159.580024 115.35,149.670024 139.64,149.670024 C163.93,149.670024 183.64,159.570024 183.64,192.670024 Z" id="Path" fill="url(#radialGradient-2)"></path>
                <path d="M183.64,192.670024 C183.64,225.760024 163.93,252.590024 139.64,252.590024 C115.35,252.590024 95.64,225.760024 95.64,192.670024 C95.64,159.580024 115.35,149.670024 139.64,149.670024 C163.93,149.670024 183.64,159.570024 183.64,192.670024 Z" id="Path" fill="url(#linearGradient-3)"></path>
                <ellipse id="Oval" fill="#393091" cx="139.62" cy="167.450024" rx="30.04" ry="17.34"></ellipse>
                <path d="M118.38,159.810024 C130.11,153.030024 149.13,153.030024 160.86,159.810024 C165.71,162.600024 168.55,166.120024 169.39,169.760024 C170.59,164.590024 167.75,159.160024 160.86,155.190024 C149.13,148.410024 130.11,148.410024 118.38,155.190024 C111.49,159.190024 108.66,164.590024 109.85,169.760024 C110.7,166.120024 113.53,162.600024 118.38,159.810024 Z" id="Path" fill="#453C9E"></path>
                <path d="M105,126.260024 L110.43,116.900024 C113.699317,113.458198 116.114208,109.296364 117.48,104.750024 L122.98,95.270024 L115,90.700024 C114.744805,90.5275509 114.477437,90.3738142 114.2,90.240024 L114.2,90.240024 C111.95,89.170024 108.96,89.460024 105.67,91.350024 C98.7,95.390024 93,105.260024 93,113.260024 C93,117.260024 94.42,120.140024 96.71,121.460024 L96.71,121.460024 L105,126.260024 Z" id="Path" fill="url(#radialGradient-4)"></path>
                <ellipse id="Oval" fill="#BCBEFF" transform="translate(113.840744, 110.666916) rotate(-60.000000) translate(-113.840744, -110.666916) " cx="113.840744" cy="110.666916" rx="17.92" ry="10.35"></ellipse>
                <circle id="Oval" fill="url(#radialGradient-5)" transform="translate(141.365570, 126.077134) rotate(-21.860000) translate(-141.365570, -126.077134) " cx="141.36557" cy="126.077134" r="44.89"></circle>
                <circle id="Oval" fill="url(#linearGradient-6)" transform="translate(141.365570, 126.077134) rotate(-21.860000) translate(-141.365570, -126.077134) " cx="141.36557" cy="126.077134" r="44.89"></circle>
                <path d="M166.49,156.410024 L171.93,147.050024 C175.202945,143.607554 177.624255,139.446462 179,134.900024 L184.5,125.420024 L176.58,120.880024 C176.331934,120.701855 176.067396,120.547821 175.79,120.420024 L175.79,120.420024 C173.54,119.350024 170.55,119.640024 167.27,121.530024 C160.27,125.530024 154.6,135.400024 154.6,143.480024 C154.6,147.480024 156.02,150.350024 158.31,151.680024 L158.31,151.680024 L166.49,156.410024 Z" id="Path" fill="url(#radialGradient-7)"></path>
                <ellipse id="Oval" fill="#BCBEFF" transform="translate(175.387391, 140.851713) rotate(-60.000000) translate(-175.387391, -140.851713) " cx="175.387391" cy="140.851713" rx="17.92" ry="10.35"></ellipse>
                <path d="M163.3,148.260024 C163.3,140.180024 168.98,130.350024 175.97,126.260024 C177.933919,124.993391 180.260795,124.409914 182.59,124.600024 C180.59,124.140024 178.07,124.600024 175.39,126.160024 C168.39,130.160024 162.72,140.030024 162.72,148.110024 C162.72,153.390024 165.14,156.610024 168.78,157.110024 C165.47,156.430024 163.3,153.260024 163.3,148.260024 Z" id="Path" fill="#FFFFFF"></path>
                <ellipse id="Oval" fill="#393091" transform="translate(176.137000, 139.510724) rotate(-60.113473) translate(-176.137000, -139.510724) " cx="176.137" cy="139.510724" rx="12.8541185" ry="7.41545167"></ellipse>
                <path d="M180.6,129.260024 C181.649711,130.663119 182.173503,132.390216 182.08,134.140024 C182.08,139.910024 178.02,146.940024 173.02,149.820024 C171.489793,150.835223 169.631357,151.231927 167.82,150.930024 C169.44,152.840024 172.22,153.110024 175.39,151.280024 C180.39,148.390024 184.45,141.370024 184.45,135.590024 C184.45,132.090024 182.92,129.850024 180.6,129.260024 Z" id="Path" fill="#453C9E"></path>
                <ellipse id="Oval" fill="#393091" transform="translate(114.557569, 137.523234) rotate(-22.600000) translate(-114.557569, -137.523234) " cx="114.557569" cy="137.523234" rx="11.4" ry="19.74"></ellipse>
                <path d="M121.52,139.670024 C121.1,142.880024 118.68,143.890024 116.11,141.920024 C113.393896,139.598915 111.945602,136.123009 112.21,132.560024 C112.63,129.350024 115.05,128.340024 117.62,130.300024 C120.340413,132.6223 121.789307,136.103361 121.52,139.670024 L121.52,139.670024 Z" id="Path" fill="#42E8E0"></path>
                <path d="M115.88,152.260024 C108.8,146.860024 104,135.260024 105.15,126.490024 C105.61,122.890024 107,120.300024 108.95,118.850024 C105.26,119.200024 102.46,122.340024 101.75,127.770024 C100.6,136.600024 105.41,148.140024 112.48,153.550024 C116.67,156.750024 120.71,157.080024 123.55,154.990024 C121.25,155.170024 118.59,154.260024 115.88,152.260024 Z" id="Path" fill="#453C9E"></path>
                <path d="M113.09,153.260024 C106.02,147.850024 101.21,136.260024 102.36,127.490024 C102.89,123.400024 104.6,120.610024 106.99,119.330024 C104.29,120.450024 102.33,123.330024 101.75,127.770024 C100.6,136.600024 105.41,148.140024 112.48,153.550024 C116.28,156.450024 119.95,156.990024 122.72,155.550024 C120,156.570024 116.61,155.920024 113.09,153.260024 Z" id="Path" fill="#42E8E0"></path>
                <circle id="Oval" fill="url(#radialGradient-8)" transform="translate(189.709728, 188.718339) rotate(-34.670000) translate(-189.709728, -188.718339) " cx="189.709728" cy="188.718339" r="17.05"></circle>
                <circle id="Oval" fill="url(#linearGradient-9)" transform="translate(189.709728, 188.718339) rotate(-34.670000) translate(-189.709728, -188.718339) " cx="189.709728" cy="188.718339" r="17.05"></circle>
                <path d="M216.9,245.190024 C215.9,253.290024 208.78,268.640024 202.3,267.860024 C195.82,267.080024 192.48,250.490024 193.45,242.390024 C194.42,234.290024 200.45,228.390024 206.92,229.120024 C213.39,229.850024 217.86,237.090024 216.9,245.190024 Z" id="Path" fill="url(#radialGradient-10)"></path>
                <path d="M216.9,245.190024 C215.9,253.290024 208.78,268.640024 202.3,267.860024 C195.82,267.080024 192.48,250.490024 193.45,242.390024 C194.42,234.290024 200.45,228.390024 206.92,229.120024 C213.39,229.850024 217.86,237.090024 216.9,245.190024 Z" id="Path" fill="url(#linearGradient-11)" style="mix-blend-mode: lighten;"></path>
                <path d="M50.49,193.070027 C49.2299541,193.062063 48.1365271,192.198738 47.8364772,190.974913 C47.5364273,189.751087 48.1065303,188.479909 49.22,187.890024 L84.42,169.470024 C85.7620519,168.768622 87.4185983,169.287972 88.1199999,170.630024 C88.8214015,171.972076 88.3020519,173.628622 86.96,174.330024 L51.76,192.760024 C51.3678791,192.964312 50.9321446,193.070672 50.49,193.070027 L50.49,193.070027 Z" id="Path" fill="#42E8E0"></path>
                <path d="M51.11,203.260024 C43.96,207.190024 27.31,210.260024 24.18,204.560024 C21.05,198.860024 32.61,186.480024 39.76,182.560024 C46.91,178.640024 55.26,180.090024 58.39,185.810024 C61.52,191.530024 58.27,199.370024 51.11,203.260024 Z" id="Path" fill="url(#radialGradient-12)"></path>
                <path d="M51.11,203.260024 C43.96,207.190024 27.31,210.260024 24.18,204.560024 C21.05,198.860024 32.61,186.480024 39.76,182.560024 C46.91,178.640024 55.26,180.090024 58.39,185.810024 C61.52,191.530024 58.27,199.370024 51.11,203.260024 Z" id="Path" fill="url(#linearGradient-13)" style="mix-blend-mode: lighten;"></path>
                <path d="M253.04,2.26002396 L30.03,2.26002396 L30.03,219.220024 C67.0840018,240.620024 104.195858,251.320024 141.36557,251.320024 C178.535281,251.320024 215.760091,240.620024 253.04,219.220024 C256.275209,198.208939 256.275209,125.888939 253.04,2.26002396 Z" id="Path" fill="url(#linearGradient-14)" opacity="0.272623698" style="mix-blend-mode: lighten;"></path>
                <path d="M216.65,181.920037 L216.65,181.920037 C215.605964,181.920037 214.604835,181.504603 213.867529,180.76542 C213.130223,180.026238 212.717343,179.024056 212.719987,177.980024 L212.719987,43.380024 C212.719987,41.2095449 214.479521,39.4500112 216.65,39.4500112 L216.65,39.4500112 C217.694032,39.4473674 218.696214,39.8602467 219.435396,40.5975528 C220.174579,41.3348589 220.590013,42.3359882 220.590013,43.380024 L220.590013,177.980024 C220.592664,179.025791 220.178414,180.029495 219.438942,180.768966 C218.699471,181.508438 217.695767,181.922688 216.65,181.920037 Z" id="Path" fill="url(#linearGradient-15)" opacity="0.8" style="mix-blend-mode: lighten;"></path>
                <path d="M61.43,124.500048 L61.43,124.500048 C60.8703932,124.500048 60.3337065,124.277721 59.9380047,123.882019 C59.5423029,123.486318 59.32,122.949631 59.32,122.390024 L59.32,2.11002396 C59.32,0.944703136 60.2646792,-9.23705556e-14 61.43,-9.23705556e-14 L61.43,-9.23705556e-14 C61.9904226,-0.00265113594 62.528665,0.218792663 62.9249482,0.615075794 C63.3212313,1.01135893 63.5426751,1.54960136 63.540024,2.11002396 L63.540024,122.390024 C63.5426751,122.950447 63.3212313,123.488689 62.9249482,123.884972 C62.528665,124.281255 61.9904226,124.502699 61.43,124.500048 L61.43,124.500048 Z" id="Path" fill="url(#linearGradient-16)" opacity="0.8" style="mix-blend-mode: lighten;"></path>
            </g>
        </g>
    </g>
</svg>